HIERARCHY
ROOT ground_pelvis
{
  OFFSET 0.0 0.0 0.0
  CHANNELS 6 XPOSITION YPOSITION ZPOSITION ZROTATION XROTATION YROTATION 
  JOINT hip_r
  {
    OFFSET -0.0707 -0.0661 0.0835
    CHANNELS 3 ZROTATION XROTATION YROTATION 
    JOINT knee_r
    {
      OFFSET 0.0 -0.396 0.0
      CHANNELS 3 ZROTATION XROTATION YROTATION 
      JOINT ankle_r
      {
        OFFSET 0.0 -0.43 0.0
        CHANNELS 3 ZROTATION XROTATION YROTATION 
        JOINT mtp_r
        {
          OFFSET 0.13003 -0.04395 0.009
          CHANNELS 3 ZROTATION XROTATION YROTATION 
          End Site
          {
            OFFSET 0.0692 0.012 -0.035
          }
        }
      }
    }
  }
  JOINT hip_l
  {
    OFFSET -0.0707 -0.0661 -0.0835
    CHANNELS 3 ZROTATION XROTATION YROTATION 
    JOINT knee_l
    {
      OFFSET 0.0 -0.396 0.0
      CHANNELS 3 ZROTATION XROTATION YROTATION 
      JOINT ankle_l
      {
        OFFSET 0.0 -0.43 0.0
        CHANNELS 3 ZROTATION XROTATION YROTATION 
        JOINT mtp_l
        {
          OFFSET 0.13003 -0.04395 -0.009
          CHANNELS 3 ZROTATION XROTATION YROTATION 
          End Site
          {
            OFFSET 0.0692 0.012 0.035
          }
        }
      }
    }
  }
  JOINT back
  {
    OFFSET -0.1007 0.0815 0.0
    CHANNELS 3 ZROTATION XROTATION YROTATION 
    JOINT shoulder_r
    {
      OFFSET 0.0031 0.3715 0.17
      CHANNELS 3 ZROTATION XROTATION YROTATION 
      JOINT elbow_r
      {
        OFFSET 0.0061 -0.2904 -0.0123
        CHANNELS 3 ZROTATION XROTATION YROTATION 
        JOINT radioulnar_r
        {
          OFFSET 0.0004 -0.011503 0.019999
          CHANNELS 3 ZROTATION XROTATION YROTATION 
          JOINT radius_hand_r
          {
            OFFSET 0.018 -0.242 0.025
            CHANNELS 3 ZROTATION XROTATION YROTATION 
            End Site
            {
              OFFSET 0.0 -0.13619 0.0
            }
          }
        }
      }
    }
    JOINT shoulder_l
    {
      OFFSET 0.0031 0.3715 -0.17
      CHANNELS 3 ZROTATION XROTATION YROTATION 
      JOINT elbow_l
      {
        OFFSET 0.0061 -0.2904 0.0123
        CHANNELS 3 ZROTATION XROTATION YROTATION 
        JOINT radioulnar_l
        {
          OFFSET 0.0004 -0.011503 -0.019999
          CHANNELS 3 ZROTATION XROTATION YROTATION 
          JOINT radius_hand_l
          {
            OFFSET 0.018 -0.242 -0.025
            CHANNELS 3 ZROTATION XROTATION YROTATION 
            End Site
            {
              OFFSET 0.0 -0.13619 0.0
            }
          }
        }
      }
    }
  }
}
MOTION
Frames: 15
Frame Time: 0.033333
1.83881767123 0.917077149596 0.0408666114872 -5.04510983892 -0.434587034322 179.263901862 -0.0432352208432 -1.41899229064 -7.53744842838 -24.9388784712 -0.596472416089 -0.135172245119 19.3567185418 -1.23741992912 -7.24631246878 -0 0.0 -0 0.241204662084 -0.597636856621 8.50793122453 -24.0306460191 0.306376112668 0.0475950259729 17.9461359216 2.62893255446 16.5362482731 -0 0.0 -0 -8.48393079356 -1.27057676228 0.195342756592 1.91301539099 -11.1186848036 -0.00511679302777 -0 0.0 -0 12.8913972235 14.7203912558 0.769908474837 -0 0.0 -0 -1.76746715471 15.3275660447 0.613009424648 -0 0.0 -0 15.0477109963 -16.0882595805 -0.632151403323 -0 0.0 -0 
1.83875064654 0.917061887071 0.040967019466 -5.03304985928 -0.430420005278 179.265103975 -0.0336344294693 -1.43533309134 -7.5781478181 -24.9430858677 -0.596566597995 -0.135216041039 19.3625327403 -1.23185588627 -7.21161083893 -0 0.0 -0 0.244456872665 -0.598983577826 8.52647348057 -24.0169822257 0.306212241489 0.0475219816354 17.9513849219 2.62899786815 16.5318035275 -0 0.0 -0 -8.3469530573 -1.20425722627 0.176570035019 1.86040159004 -11.1081039868 -0.0115068752234 -0 0.0 -0 12.7966701836 14.7109673023 0.772806983005 -0 0.0 -0 -1.89240550862 15.2868154286 0.631397201028 -0 0.0 -0 15.1026632833 -16.0743003814 -0.630816421505 -0 0.0 -0 
1.83865687762 0.917029191432 0.0411768487752 -5.00730004611 -0.435539018618 179.2754039 -0.0042663823659 -1.4693759281 -7.63975697818 -24.9665031713 -0.597090815013 -0.135459966838 19.3822549115 -1.22359605313 -7.15596827597 -0 0.0 -0 0.271261336413 -0.628184717601 8.46841174999 -24.0152746784 0.306191750922 0.0475128602646 17.9523735918 2.6390002533 16.5929337205 -0 0.0 -0 -8.02466716622 -1.06760424416 0.150264335163 1.64070460669 -11.1016767788 -0.0383582790128 -0 0.0 -0 12.7261117682 14.701497245 0.775046644722 -0 0.0 -0 -2.15753210785 15.206586319 0.67038013219 -0 0.0 -0 15.1393243237 -16.0788988063 -0.629107806996 -0 0.0 -0 
1.83857222371 0.917001849913 0.0414284502908 -4.98624001158 -0.469366064091 179.265691371 0.0393565338383 -1.54586657629 -7.70380366203 -25.0197632789 -0.598282522941 -0.136015533358 19.4141758006 -1.20907891294 -7.05945642234 -0 0.0 -0 0.290296940228 -0.699929611613 8.40097302344 -24.010565263 0.306135268459 0.0474876872823 17.9537567051 2.65242499011 16.6749011132 -0 0.0 -0 -7.729365645 -0.954445938863 0.159467681564 1.37755278589 -11.0967479436 -0.0705156400535 -0 0.0 -0 12.7589598554 14.7142936044 0.773690852172 -0 0.0 -0 -2.40332478943 15.1346217384 0.706295934888 -0 0.0 -0 15.1378285122 -16.125900753 -0.626375944771 -0 0.0 -0 
1.83853455201 0.916991406213 0.0416666387053 -4.97886981058 -0.515846995497 179.230297331 0.0744528839242 -1.64376378438 -7.77017687906 -25.0702349617 -0.599411371784 -0.136543045409 19.4374872363 -1.18859859071 -6.93169986834 -0 0.0 -0 0.284171327759 -0.772536977089 8.43415920507 -23.9927077334 0.305921077995 0.0473923180979 17.9512278276 2.65192382498 16.6741463773 -0 0.0 -0 -7.6033392633 -0.916979469779 0.19084797185 1.25727624954 -11.0817061595 -0.0850707131438 -0 0.0 -0 12.7769966775 14.7544482866 0.771694249139 -0 0.0 -0 -2.53594273056 15.0919876976 0.725379590151 -0 0.0 -0 15.1658305803 -16.1743285018 -0.622378096312 -0 0.0 -0 
1.83854410539 0.917001894566 0.0419241084281 -4.97965015969 -0.532879993183 179.245200804 0.0645775042716 -1.68996819985 -7.83055319 -25.0572132061 -0.59912018161 -0.136406868513 19.4316013207 -1.17768448203 -6.87031482384 -0 0.0 -0 0.280612452356 -0.796880518343 8.47862117525 -23.9904093747 0.305893490434 0.0473800350966 17.9447750064 2.64141557894 16.6149644957 -0 0.0 -0 -7.56657491632 -0.91192619701 0.167797510804 1.26123530466 -11.0571738275 -0.084327456494 -0 0.0 -0 12.7002936531 14.7910683458 0.77242065043 -0 0.0 -0 -2.60699889605 15.0666306203 0.735451878021 -0 0.0 -0 15.2577649265 -16.1801170871 -0.618343428864 -0 0.0 -0 
1.83850174424 0.917016603506 0.0422486618159 -4.98228960092 -0.511962965736 179.367502171 0.000176888517602 -1.65549036541 -7.87131405142 -24.9724505585 -0.597223896981 -0.135521932129 19.4054826774 -1.18916688379 -6.94663706517 -0 0.0 -0 0.297083533581 -0.77437392445 8.40307416039 -24.0175901125 0.306219551926 0.0475252366474 17.9395601569 2.63409062795 16.574336823 -0 0.0 -0 -7.50177861921 -0.877277180959 0.0611287723389 1.23296824661 -11.0257583724 -0.0874359262781 -0 0.0 -0 12.6357509268 14.7877044776 0.774316081285 -0 0.0 -0 -2.68226160428 15.0451035716 0.746328527388 -0 0.0 -0 15.3572090657 -16.1592013403 -0.615636432796 -0 0.0 -0 
1.83838952065 0.917021281881 0.0425732922405 -4.98424004681 -0.478348990149 179.526495315 -0.0736102360158 -1.59819511012 -7.91062349764 -24.8834719766 -0.59523182962 -0.13459604129 19.3863427798 -1.20858777965 -7.06689705966 -0 0.0 -0 0.313319240084 -0.737387009351 8.28875728425 -24.0436353314 0.306531899678 0.0476645118085 17.9494502708 2.62823053908 16.5288306876 -0 0.0 -0 -7.43414523228 -0.824591876466 -0.0516800627309 1.14446724438 -10.9784473596 -0.0976597322898 -0 0.0 -0 12.684131718 14.7448877293 0.774566770572 -0 0.0 -0 -2.72386343275 15.032787033 0.752309638666 -0 0.0 -0 15.3864251999 -16.1543775192 -0.614766544173 -0 0.0 -0 
1.83832003516 0.917025821883 0.0427939512312 -4.97948025873 -0.454143013174 179.606599773 -0.100272759895 -1.57857944715 -7.98296544624 -24.8493039553 -0.594466474907 -0.13424129834 19.3815906756 -1.20941988879 -7.07351337853 -0 0.0 -0 0.319766031526 -0.699782602463 8.3032953419 -24.0471528788 0.306574081433 0.0476833248442 17.9778399521 2.61558487072 16.4243168405 -0 0.0 -0 -7.41385530157 -0.80510886858 -0.0821609591759 1.09744107178 -10.910835317 -0.102552548974 -0 0.0 -0 12.7528485437 14.6911119424 0.774723011149 -0 0.0 -0 -2.70084228015 15.0384987787 0.748950733059 -0 0.0 -0 15.3254657616 -16.1717449827 -0.616137918092 -0 0.0 -0 
1.83837406439 0.917005876275 0.042918207567 -4.96381009723 -0.434864030509 179.592201734 -0.0741037371937 -1.58876197854 -8.06371365015 -24.8583334654 -0.594668765901 -0.134335026678 19.3749500242 -1.19199426195 -6.97427158367 -0 0.0 -0 0.338412928207 -0.666734945607 8.41639985946 -24.049128511 0.306597746971 0.0476938902931 18.0044247559 2.60276311154 16.3206618897 -0 0.0 -0 -7.37480881764 -0.818224165808 -0.0279938004526 1.09083691918 -10.8489281899 -0.102602901609 -0 0.0 -0 12.7215346877 14.6389532028 0.777494253683 -0 0.0 -0 -2.67492662145 15.0497788361 0.745386654973 -0 0.0 -0 15.1925502803 -16.1912793238 -0.620292007129 -0 0.0 -0 
1.83852766088 0.916998156462 0.0430439295764 -4.95036999249 -0.419947991259 179.564293581 -0.037546703796 -1.59312337449 -8.07886471728 -24.8764795705 -0.595075215517 -0.134523417169 19.3613545327 -1.18357733445 -6.93008623615 -0 0.0 -0 0.371502900219 -0.654817492805 8.46801389147 -24.0692502483 0.306839018067 0.0478016158499 18.0121428697 2.60124296757 16.30424553 -0 0.0 -0 -7.25835579983 -0.810151735983 0.0577803254592 1.00294316346 -10.827296127 -0.11288796588 -0 0.0 -0 12.6639929052 14.5763408587 0.781290664923 -0 0.0 -0 -2.68635459514 15.0387241749 0.746682469925 -0 0.0 -0 15.0031354742 -16.2077554476 -0.626953415921 -0 0.0 -0 
1.83866466411 0.917022493594 0.0432120562023 -4.96190063247 -0.420030994066 179.578199847 -0.0291911079347 -1.59091818389 -8.02074151499 -24.898037355 -0.595558024514 -0.134747386009 19.3560713814 -1.19653644446 -7.00772542334 -0 0.0 -0 0.382247508155 -0.666420330019 8.43409004941 -24.0920801556 0.307112705882 0.047923932265 18.010293596 2.60536541362 16.3314279753 -0 0.0 -0 -7.14979421185 -0.760554850933 0.135492503618 0.810660158189 -10.844337449 -0.136207432325 -0 0.0 -0 12.7348364811 14.4996019758 0.782343101025 -0 0.0 -0 -2.6826515654 15.0027000497 0.744463672301 -0 0.0 -0 14.8055415166 -16.2263079489 -0.63388429702 -0 0.0 -0 
1.83877530681 0.917069130479 0.0433743088068 -4.99834011858 -0.425312010955 179.61299283 -0.0469578073429 -1.58542415047 -7.97013322834 -24.9263109231 -0.596191044312 -0.135041417648 19.3646279008 -1.21287745861 -7.10000298657 -0 0.0 -0 0.361360416148 -0.677636354409 8.40922474573 -24.1079074115 0.307302403714 0.0480087860262 18.0130051811 2.60379190879 16.3192275499 -0 0.0 -0 -7.14108529377 -0.719742976539 0.183767680362 0.640855518925 -10.8634824692 -0.156915005084 -0 0.0 -0 12.9135671637 14.434925207 0.780418428422 -0 0.0 -0 -2.64784086596 14.9856296994 0.738230164188 -0 0.0 -0 14.7086740663 -16.2443396483 -0.63680980578 -0 0.0 -0 
1.83893761216 0.917108089518 0.0434900934483 -5.02882965615 -0.420952989563 179.629890718 -0.0584022595398 -1.58352140918 -7.97596962498 -24.9475084152 -0.596665635738 -0.135262104796 19.3686645426 -1.21506151832 -7.11124931992 -0 0.0 -0 0.354562056726 -0.675561257562 8.4156015811 -24.133886036 0.30761373761 0.0481481879193 18.0116528036 2.59983466794 16.295977586 -0 0.0 -0 -7.17481660987 -0.739886858587 0.190682913392 0.582861236456 -10.863815441 -0.163898153139 -0 0.0 -0 13.021788096 14.4103382335 0.778773046523 -0 0.0 -0 -2.67743266054 15.0281271364 0.744798511653 -0 0.0 -0 14.7860003454 -16.2580871116 -0.632890344414 -0 0.0 -0 
1.83917786166 0.917116748619 0.0435564135094 -5.02819060657 -0.413389035305 179.618101812 -0.0356630390085 -1.58637461399 -7.98343075288 -24.9576410008 -0.596892366002 -0.135367625882 19.3552346832 -1.21013364356 -7.08747556586 -0 0.0 -0 0.389945371474 -0.676803178052 8.41192693933 -24.1700501801 0.308047054416 0.0483424881249 17.9951920477 2.6017471209 16.3227707106 -0 0.0 -0 -7.16012999561 -0.80190364223 0.172624413494 0.611596802789 -10.8582829877 -0.160350723638 -0 0.0 -0 12.9705292339 14.4230901967 0.779502862908 -0 0.0 -0 -2.81366291797 15.0987803207 0.769502878994 -0 0.0 -0 14.9712128776 -16.2606586778 -0.625179807893 -0 0.0 -0 
